<svg width="95" height="32" viewBox="0 0 95 32" fill="none" xmlns="http://www.w3.org/2000/svg">
<rect width="95" height="32" fill="black"/>
<path d="M25.2841 15.2017L22.5142 15.3722C22.4669 15.1354 22.3651 14.9223 22.2088 14.733C22.0526 14.5388 21.8466 14.3849 21.5909 14.2713C21.34 14.1529 21.0393 14.0938 20.6889 14.0938C20.2202 14.0938 19.8248 14.1932 19.5028 14.392C19.1809 14.5862 19.0199 14.8466 19.0199 15.1733C19.0199 15.4337 19.1241 15.6539 19.3324 15.8338C19.5407 16.0137 19.8982 16.1581 20.4048 16.267L22.3793 16.6648C23.4399 16.8826 24.2306 17.233 24.7514 17.7159C25.2723 18.1989 25.5327 18.8333 25.5327 19.6193C25.5327 20.3343 25.322 20.9616 24.9006 21.5014C24.4839 22.0412 23.911 22.4626 23.1818 22.7656C22.4574 23.0639 21.6217 23.2131 20.6747 23.2131C19.2306 23.2131 18.08 22.9124 17.223 22.3111C16.3707 21.705 15.8712 20.8812 15.7244 19.8395L18.7003 19.6832C18.7902 20.1236 19.008 20.4598 19.3537 20.6918C19.6993 20.919 20.142 21.0327 20.6818 21.0327C21.2121 21.0327 21.6383 20.9309 21.9602 20.7273C22.2869 20.5189 22.4527 20.2514 22.4574 19.9247C22.4527 19.6501 22.3366 19.4252 22.1094 19.25C21.8821 19.0701 21.5317 18.9328 21.0582 18.8381L19.169 18.4616C18.1037 18.2486 17.3106 17.8793 16.7898 17.3537C16.2737 16.8281 16.0156 16.1581 16.0156 15.3438C16.0156 14.643 16.205 14.0393 16.5838 13.5327C16.9673 13.026 17.5047 12.6354 18.196 12.3608C18.892 12.0862 19.7064 11.9489 20.6392 11.9489C22.017 11.9489 23.1013 12.2401 23.892 12.8224C24.6875 13.4048 25.1515 14.1979 25.2841 15.2017ZM27.4379 23V12.0909H30.4634V23H27.4379ZM28.9577 10.6847C28.5079 10.6847 28.122 10.5355 27.8001 10.2372C27.4828 9.93419 27.3242 9.57197 27.3242 9.15057C27.3242 8.7339 27.4828 8.37642 27.8001 8.07812C28.122 7.77509 28.5079 7.62358 28.9577 7.62358C29.4076 7.62358 29.7911 7.77509 30.1083 8.07812C30.4303 8.37642 30.5913 8.7339 30.5913 9.15057C30.5913 9.57197 30.4303 9.93419 30.1083 10.2372C29.7911 10.5355 29.4076 10.6847 28.9577 10.6847ZM32.8871 23V12.0909H35.7706V14.0156H35.8984C36.1257 13.3764 36.5045 12.8722 37.0348 12.5028C37.5651 12.1335 38.1996 11.9489 38.9382 11.9489C39.6863 11.9489 40.3232 12.1359 40.8487 12.5099C41.3743 12.8793 41.7247 13.3812 41.8999 14.0156H42.0135C42.236 13.3906 42.6385 12.8911 43.2209 12.517C43.808 12.1383 44.5017 11.9489 45.3018 11.9489C46.3198 11.9489 47.1461 12.2732 47.7805 12.9219C48.4197 13.5658 48.7393 14.4796 48.7393 15.6634V23H45.7209V16.2599C45.7209 15.6539 45.5599 15.1993 45.2379 14.8963C44.916 14.5933 44.5135 14.4418 44.0305 14.4418C43.4813 14.4418 43.0528 14.617 42.745 14.9673C42.4373 15.313 42.2834 15.7699 42.2834 16.3381V23H39.3501V16.196C39.3501 15.661 39.1963 15.2348 38.8885 14.9176C38.5855 14.6004 38.1854 14.4418 37.6882 14.4418C37.352 14.4418 37.049 14.527 36.7791 14.6974C36.514 14.8632 36.3033 15.0975 36.147 15.4006C35.9908 15.6989 35.9126 16.0492 35.9126 16.4517V23H32.8871ZM51.1293 27.0909V12.0909H54.1122V13.9233H54.2472C54.3797 13.6297 54.5715 13.3314 54.8224 13.0284C55.0781 12.7206 55.4096 12.465 55.8168 12.2614C56.2287 12.053 56.7401 11.9489 57.3509 11.9489C58.1463 11.9489 58.8802 12.1572 59.5526 12.5739C60.2249 12.9858 60.7623 13.6084 61.1648 14.4418C61.5672 15.2704 61.7685 16.3097 61.7685 17.5597C61.7685 18.7765 61.572 19.804 61.179 20.642C60.7907 21.4754 60.2604 22.1075 59.5881 22.5384C58.9205 22.9645 58.1723 23.1776 57.3438 23.1776C56.7566 23.1776 56.2571 23.0805 55.8452 22.8864C55.438 22.6922 55.1042 22.4484 54.8438 22.1548C54.5833 21.8565 54.3845 21.5559 54.2472 21.2528H54.1548V27.0909H51.1293ZM54.0909 17.5455C54.0909 18.1941 54.1809 18.7599 54.3608 19.2429C54.5407 19.7259 54.8011 20.1023 55.142 20.3722C55.483 20.6373 55.8973 20.7699 56.3849 20.7699C56.8774 20.7699 57.294 20.6349 57.6349 20.3651C57.9759 20.0904 58.2339 19.7116 58.4091 19.2287C58.589 18.741 58.679 18.1799 58.679 17.5455C58.679 16.9157 58.5914 16.3617 58.4162 15.8835C58.241 15.4053 57.983 15.0312 57.642 14.7614C57.3011 14.4915 56.8821 14.3565 56.3849 14.3565C55.8925 14.3565 55.4759 14.4867 55.1349 14.7472C54.7988 15.0076 54.5407 15.3769 54.3608 15.8551C54.1809 16.3333 54.0909 16.8968 54.0909 17.5455ZM66.8111 8.45455V23H63.7855V8.45455H66.8111ZM74.2063 23.2131C73.0842 23.2131 72.1183 22.9858 71.3086 22.5312C70.5037 22.072 69.8834 21.4233 69.4478 20.5852C69.0122 19.7424 68.7944 18.7457 68.7944 17.5952C68.7944 16.473 69.0122 15.4882 69.4478 14.6406C69.8834 13.7931 70.4966 13.1326 71.2873 12.6591C72.0827 12.1856 73.0155 11.9489 74.0856 11.9489C74.8053 11.9489 75.4753 12.0649 76.0955 12.2969C76.7205 12.5241 77.265 12.8674 77.729 13.3267C78.1978 13.786 78.5624 14.3636 78.8228 15.0597C79.0832 15.7509 79.2134 16.5606 79.2134 17.4886V18.3196H70.0018V16.4446H76.3654C76.3654 16.009 76.2707 15.6231 76.0813 15.2869C75.8919 14.9508 75.6291 14.688 75.293 14.4986C74.9615 14.3045 74.5756 14.2074 74.1353 14.2074C73.676 14.2074 73.2688 14.3139 72.9137 14.527C72.5633 14.7353 72.2887 15.017 72.0898 15.3722C71.891 15.7225 71.7892 16.1132 71.7844 16.544V18.3267C71.7844 18.8665 71.8839 19.3329 72.0827 19.7259C72.2863 20.1188 72.5728 20.4219 72.9421 20.6349C73.3114 20.848 73.7494 20.9545 74.256 20.9545C74.5922 20.9545 74.9 20.9072 75.1793 20.8125C75.4587 20.7178 75.6978 20.5758 75.8967 20.3864C76.0955 20.197 76.247 19.965 76.3512 19.6903L79.1495 19.875C79.0075 20.5473 78.7163 21.1345 78.2759 21.6364C77.8403 22.1335 77.2769 22.5218 76.5856 22.8011C75.899 23.0758 75.1059 23.2131 74.2063 23.2131Z" fill="white"/>
</svg>
